<?xml version="1.0" encoding="utf-8"?>
<!-- Generator: Adobe Illustrator 24.0.2, SVG Export Plug-In . SVG Version: 6.00 Build 0)  -->
<svg version="1.1" id="Layer_1" xmlns="http://www.w3.org/2000/svg" xmlns:xlink="http://www.w3.org/1999/xlink" x="0px" y="0px"
	 viewBox="0 0 80.8 80.8" style="enable-background:new 0 0 80.8 80.8;" xml:space="preserve">
<style type="text/css">
	.st0{fill-rule:evenodd;clip-rule:evenodd;fill:#FFFFFF;}
	.st1{fill:#231F20;}
</style>
<rect class="st0" width="80.8" height="80.8"/>
<g>
	<g>
		<path class="st1" d="M36.2,28.5c1.8,0,3.5,0.4,5.2,1.1c3.8,1.6,6.6,4.8,7.5,8.7v0c0.4,1.6,1.1,5.7-1.1,9.1l-0.1,0.1
			c-0.5,0.6-0.8,1.3-0.8,2.1c0,1.8,1.4,3.2,3.2,3.2c1.3,0,2.2-0.7,2.6-1.3c1.5-2.3,2.3-5.2,2.3-8.1c0-4.1-1.6-8-4.5-10.9
			c-2.9-2.9-6.8-4.5-10.9-4.5c-1.4,0-2.8,0.2-4.1,0.5C35.8,28.5,36,28.5,36.2,28.5z"/>
	</g>
	<g>
		<path class="st1" d="M41.4,40.6l0,0.1v0.1c0,1.6,1.2,2.9,2.7,2.9c1.5,0,2.7-1.3,2.7-2.9c0-0.2,0-0.4-0.1-0.6l0-0.2
			c-0.1-0.8-0.7-2.6-1.5-3.9c-1.5-2.6-3.9-4.4-6.8-5.1c-2.9-0.7-5.8-0.3-8.3,1.3c-1.1,0.7-2,1.5-2.8,2.5c0.2-0.1,0.4-0.3,0.6-0.4
			c2.2-1.3,5-1.5,8.1-0.5l0,0C38.1,34.3,40.9,37.5,41.4,40.6L41.4,40.6z"/>
	</g>
	<g>
		<path class="st1" d="M28.3,39.1c0.9,0,1.9,0.3,3.1,1.2l0.1,0.1c0.6,0.6,1.3,1,2.2,1c0,0,0,0,0,0c1.6,0,2.9-1.3,2.9-2.9
			c0-1.6-1.4-2.9-3.4-3.1c-2-0.2-3.9,0.4-5.3,1.7c-1,0.8-1.7,1.9-2.1,3c0.3-0.2,0.5-0.4,0.9-0.5C27.1,39.2,27.6,39.1,28.3,39.1z"/>
	</g>
</g>
</svg>
