<?xml version="1.0" encoding="utf-8"?>
<!-- Generator: Adobe Illustrator 24.0.2, SVG Export Plug-In . SVG Version: 6.00 Build 0)  -->
<svg version="1.1" id="Layer_1" xmlns="http://www.w3.org/2000/svg" xmlns:xlink="http://www.w3.org/1999/xlink" x="0px" y="0px"
	 viewBox="0 0 80.8 80.8" style="enable-background:new 0 0 80.8 80.8;" xml:space="preserve">
<style type="text/css">
	.st0{fill-rule:evenodd;clip-rule:evenodd;fill:#FFFFFF;}
	.st1{fill-rule:evenodd;clip-rule:evenodd;}
</style>
<rect class="st0" width="80.8" height="80.8"/>
<g>
	<path class="st1" d="M59.8,35.8C55.5,18,34,8.5,17.4,18.2c-1.4,0.8-3.4,2.1-7.3,6.3c3.3-4.2,5.7-5.8,7-6.8
		c6.3-4.8,14.1-7.6,22.6-7.6C50,10.1,59.3,14.3,66,21c6.7,6.7,10.9,16,10.9,26.3c0,7.2-2,14-5.6,19.7c-1.2,1.8-3.6,3.7-7.3,3.7
		c-4.9,0-8.9-4-8.9-8.9c0-2.3,0.9-4.4,2.3-6C61.9,48.8,60.8,40.2,59.8,35.8L59.8,35.8z"/>
	<path class="st1" d="M30.8,26.3c-19.5-6-26.1,10.1-27,14.3c0.5-3.9,1.4-5.9,1.8-7.1C7.8,28.1,11.6,23.3,17,20
		c6.4-3.9,13.8-4.9,20.5-3.1c6.7,1.7,12.8,6.1,16.7,12.6c1.8,3.1,3.3,7.3,3.6,9.6c0.1,0.9,0.2,1.5,0.2,2.2c0,4.6-3.5,8.3-7.9,8.3
		s-7.9-3.7-7.9-8.3c-0.1-0.2-0.1-0.3-0.1-0.4C41,34.1,34.9,27.6,30.8,26.3L30.8,26.3z"/>
	<path class="st1" d="M19.7,41.2C11,34.7,4.9,43.1,4.8,46.5c-0.1-2.5,0.2-4.1,0.4-4.9c0.8-3.9,2.9-7.5,6.1-10.3
		c3.9-3.3,8.8-4.7,13.5-4.3c5.4,0.5,9.4,4,9.4,8.6S30.5,44,25.9,44C23.4,44,21.2,42.9,19.7,41.2L19.7,41.2z"/>
</g>
</svg>
