<?xml version="1.0" encoding="utf-8"?>
<!-- Generator: Adobe Illustrator 24.0.2, SVG Export Plug-In . SVG Version: 6.00 Build 0)  -->
<svg version="1.1" id="Layer_1" xmlns="http://www.w3.org/2000/svg" xmlns:xlink="http://www.w3.org/1999/xlink" x="0px" y="0px"
	 viewBox="0 0 1440 1440" style="enable-background:new 0 0 1440 1440;" xml:space="preserve">
<style type="text/css">
	.st0{fill-rule:evenodd;clip-rule:evenodd;fill:#FFFFFF;}
	.st1{fill:#231F20;}
</style>
<rect class="st0" width="1440" height="1440"/>
<g>
	<g>
		<path class="st1" d="M595.3,366.6c53.4,0,103.9,11.9,154.4,32.7c112.8,47.5,196,142.5,222.7,258.3l0,0
			c11.9,47.5,32.7,169.3-32.7,270.2l-3,3c-14.8,17.8-23.8,38.6-23.8,62.4c0,53.4,41.6,95,95,95c38.6,0,65.3-20.8,77.2-38.6
			c44.5-68.3,68.3-154.4,68.3-240.5c0-121.7-47.5-237.6-133.6-323.7S818,351.8,696.2,351.8c-41.6,0-83.1,5.9-121.7,14.8
			C583.4,366.6,589.3,366.6,595.3,366.6z"/>
	</g>
	<g>
		<path class="st1" d="M749.7,725.9v3v3c0,47.5,35.6,86.1,80.2,86.1s80.2-38.6,80.2-86.1c0-5.9,0-11.9-3-17.8v-5.9
			c-3-23.8-20.8-77.2-44.5-115.8C818,515.1,746.7,461.7,660.6,440.9c-86.1-20.8-172.2-8.9-246.5,38.6
			c-32.7,20.8-59.4,44.5-83.1,74.2c5.9-3,11.9-8.9,17.8-11.9c65.3-38.6,148.5-44.5,240.5-14.8l0,0
			C651.7,538.9,734.8,633.9,749.7,725.9L749.7,725.9z"/>
	</g>
	<g>
		<path class="st1" d="M360.7,681.4c26.7,0,56.4,8.9,92.1,35.6l3,3c17.8,17.8,38.6,29.7,65.3,29.7l0,0c47.5,0,86.1-38.6,86.1-86.1
			c0-47.5-41.6-86.1-101-92.1c-59.4-5.9-115.8,11.9-157.4,50.5c-29.7,23.8-50.5,56.4-62.4,89.1c8.9-5.9,14.8-11.9,26.7-14.8
			C325.1,684.4,339.9,681.4,360.7,681.4z"/>
	</g>
</g>
</svg>
