<?xml version="1.0" encoding="utf-8"?>
<!-- Generator: Adobe Illustrator 24.0.2, SVG Export Plug-In . SVG Version: 6.00 Build 0)  -->
<svg version="1.1" id="Layer_1" xmlns="http://www.w3.org/2000/svg" xmlns:xlink="http://www.w3.org/1999/xlink" x="0px" y="0px"
	 viewBox="0 0 80.8 80.8" style="enable-background:new 0 0 80.8 80.8;" xml:space="preserve">
<style type="text/css">
	.st0{fill-rule:evenodd;clip-rule:evenodd;fill:#FFFFFF;}
	.st1{fill:#231F20;}
</style>
<rect class="st0" width="80.8" height="80.8"/>
<g>
	<g>
		<path class="st1" d="M30.7,12.8c4.1,0,8.2,0.8,12.1,2.5c8.8,3.7,15.3,11.3,17.4,20.1v0c0.9,3.7,2.5,13.3-2.6,21.1l-0.2,0.2
			c-1.3,1.4-1.9,3.1-1.9,5c0,4.1,3.3,7.4,7.4,7.4c3,0,5.1-1.5,6-3c3.5-5.4,5.4-12,5.4-18.9c0-9.5-3.7-18.5-10.4-25.2
			c-6.7-6.7-15.7-10.4-25.2-10.4c-3.2,0-6.4,0.4-9.4,1.3C29.8,12.9,30.3,12.8,30.7,12.8z"/>
	</g>
	<g>
		<path class="st1" d="M42.6,40.8l0.1,0.2v0.2c0,3.7,2.9,6.8,6.4,6.8s6.4-3,6.4-6.8c0-0.5-0.1-0.9-0.1-1.5l-0.1-0.6
			c-0.2-1.9-1.7-6-3.4-9c-3.5-6-9.1-10.2-15.8-11.9c-6.6-1.7-13.5-0.6-19.4,3c-2.5,1.6-4.7,3.5-6.6,5.8c0.4-0.3,0.9-0.6,1.4-0.9
			c5.2-3.1,11.5-3.5,18.7-1.3l0,0c4.8,1.5,11.2,8.7,12.3,15.8L42.6,40.8z"/>
	</g>
	<g>
		<path class="st1" d="M12.4,37.3c2.1,0,4.5,0.7,7.2,2.7l0.2,0.2c1.3,1.4,3.1,2.2,5,2.2c0,0,0,0,0,0c3.8,0,6.8-3.1,6.8-6.8
			c0-3.7-3.4-6.7-8-7.1c-4.6-0.4-9,1-12.4,3.9c-2.2,1.9-3.9,4.3-4.9,7c0.6-0.5,1.3-0.9,2-1.3C9.4,37.7,10.8,37.3,12.4,37.3z"/>
	</g>
</g>
</svg>
